<?xml version="1.0" encoding="UTF-8"?>
<svg id="Camada_1" data-name="Camada 1" xmlns="http://www.w3.org/2000/svg" viewBox="0 0 1122.45 265.57">
  <defs>
    <style>
      .cls-1 {
        fill: #f3eeeb;
      }
    </style>
  </defs>
  <path class="cls-1" d="M189.26,0H28.06C19.88,0,12.54,3.52,7.42,9.1h171.15C185.04,6.12,188.1,2.89,189.26,0Z"/>
  <path class="cls-1" d="M237.51,265.57c15.5,0,28.06-12.56,28.06-28.06v-50.62h-9.67c-.73,7.71-2.16,15.28-4.12,22.66-4.13,15.52-10.56,30.17-17.52,43.38-2.31,4.38-4.67,8.59-7.02,12.63"/>
  <path class="cls-1" d="M237.51,0h-1.12c-.26,3.23-1.09,6.26-2.43,9.1h24.19C253.03,3.52,245.69,0,237.51,0Z"/>
  <path class="cls-1" d="M0,186.89v50.62c0,2.88.44,5.67,1.25,8.28,3.31-1.38,7.22-2.98,11.59-4.79,25.65-10.63,67.76-28.72,106.3-54.11H0Z"/>
  <path class="cls-1" d="M145.06,126.03l-31.08-18.2c-6.02-3.42-11.07-6.49-15.33-9.31H0v83.02h127.05c3.36-2.34,6.68-4.72,9.95-7.17,22.94-17.2,22.6-35.37,8.06-48.33Z"/>
  <path class="cls-1" d="M215.07,98.51c19.72,11.28,31.01,23.73,36.71,42.86,2.43,8.12,3.86,17.43,4.49,28.38.23,3.95.21,7.88.02,11.78h9.28v-83.02h-50.5Z"/>
  <path class="cls-1" d="M241.69,171.85c-2.61-40.38-16.5-57.44-66.11-77.04-12.29-4.85-79.06-18.11-60.3-42.59,2.17-2.83,5.02-5.07,8.2-6.71,27.24-14.06,87.52-10.99,101.43-34.01,1.97-3.26,2.97-7.07,2.86-11.5h-30.43c-.78,4.75-3.38,8.5-7.37,11.5-23.64,17.73-94.43,10.08-105.1,41.02-10.43,30.23,36.05,48.29,50.3,54.31,16.64,7.03,55.01,27.17,23.89,70.89-13.69,19.23-33.62,30.69-50.36,40.7-19.4,11.59-25.97,13.91-45.92,24.12-3.67,1.88-12.58,5.86-22.93,10.4-7.49,3.28-15.72,6.85-23.29,10.14,3.52,1.59,7.41,2.5,11.52,2.5h170.69c4.26-3.57,8.37-7.85,12.25-12.63,18.76-23.1,32.18-57.87,30.69-81.09Z"/>
  <path class="cls-1" d="M337.04,156.19h29.94c.54,14.03,12.14,21.85,29.94,21.85s29.13-6.2,29.13-16.18c0-7.82-4.32-13.49-19.15-15.11l-23.74-3.24c-24.01-2.97-41.27-15.38-41.27-39.92,0-22.93,19.96-42.35,54.22-42.35s57.18,16.99,56.91,46.12h-28.59c-.54-12.14-11.33-20.5-28.59-20.5s-25.08,7.28-25.08,15.64,7.01,12.41,16.99,13.76l26.17,3.51c28.32,3.51,41.81,19.15,41.81,41.27,0,25.09-21.58,43.97-58.8,43.97s-59.07-18.61-59.88-48.82Z"/>
  <path class="cls-1" d="M798.49,205.01c-42.62,0-72.29-30.48-72.29-72.02s29.67-71.75,72.29-71.75c36.95,0,64.2,22.66,69.05,57.72h-31.02c-3.51-19.69-19.42-29.94-38.03-29.94-24.01,0-42.35,17.8-42.35,43.97s18.61,43.97,42.35,43.97c17.8,0,32.37-9.71,37.22-27.78h31.29c-5.93,33.99-32.37,55.84-68.51,55.84Z"/>
  <path class="cls-1" d="M523.73,61.24c-30.48,0-53.14,17.8-57.18,46.66h27.51c1.89-10.52,11.06-21.04,29.4-21.04,21.31,0,30.75,13.76,30.75,27.24h0c0,1.79-1.45,3.24-3.24,3.24h-38.57c-33.45,0-49.9,19.96-49.9,42.62,0,27.51,22.66,45.05,49.9,45.05,24.82,0,38.3-10.25,43.97-21.58v19.15h26.16v-88.47c0-26.16-19.15-52.87-58.8-52.87ZM554.21,148.1c0,15.91-12.41,31.29-37.22,31.29-14.84,0-24.82-7.55-24.82-19.69,0-11.33,9.44-17.8,20.23-17.8h41.81v6.2Z"/>
  <path class="cls-1" d="M933.33,61.24c-30.48,0-53.14,17.8-57.18,46.66h27.51c1.89-10.52,11.06-21.04,29.4-21.04,21.31,0,30.75,13.76,30.75,27.24h0c0,1.79-1.45,3.24-3.24,3.24h-38.57c-33.45,0-49.9,19.96-49.9,42.62,0,27.51,22.66,45.05,49.9,45.05,24.82,0,38.3-10.25,43.97-21.58v19.15h26.16v-88.47c0-26.16-19.15-52.87-58.8-52.87ZM963.82,148.1c0,15.91-12.41,31.29-37.22,31.29-14.84,0-24.82-7.55-24.82-19.69,0-11.33,9.44-17.8,20.23-17.8h41.81v6.2Z"/>
  <path class="cls-1" d="M712.84,202.07h-27.46v-83.16c0-17.03-13.86-30.89-30.89-30.89s-30.89,13.86-30.89,30.89v83.16h-27.46v-83.16c0-32.17,26.18-58.35,58.35-58.35s58.35,26.18,58.35,58.35v83.16Z"/>
  <path class="cls-1" d="M1122.45,202.07h-27.46v-83.16c0-17.03-13.86-30.89-30.89-30.89s-30.89,13.86-30.89,30.89v83.16h-27.46v-83.16c0-32.17,26.18-58.35,58.35-58.35s58.35,26.18,58.35,58.35v83.16Z"/>
  <circle class="cls-1" cx="646.22" cy="161.85" r="9.02"/>
  <path class="cls-1" d="M123.25,59.53h0c1.86,4.46,9.78,9.32,27.33,14.19,17.89,3.67,31.49,9.36,34.2,10.47,7.4,3.04,14.1,5.99,20.15,8.96h60.65v-44.59h-135.01c-10.99,5.7-7.32,10.97-7.32,10.97Z"/>
  <path class="cls-1" d="M265.57,31.43v-3.37c0-1.55-.14-3.07-.38-4.55-.72-7.43-4.26-10.89-4.26-10.89h-19.49s0,0,0,0h-9.47c-5.25,6.84-9.72,9.91-9.72,9.91-2.86,2.09-6.09,3.99-9.62,5.72-.36.16-.72.33-1.09.52-2.02.95-4.12,1.84-6.31,2.67h.03c-6.09,2.2-13.05,4.02-13.05,4.02-8.74,2.17-18.26,3.6-28.1,4.28-7.33.51-17.05,2.42-25.23,5.3h126.69v-13.6Z"/>
  <path class="cls-1" d="M0,55.51v37.64h91.15c-7.86-6.23-12.62-12.32-15.29-18.02-5.06-10.81-2.57-20.23.73-26.57H0v6.95Z"/>
  <path class="cls-1" d="M4.64,12.62S.22,17.83.11,25.07h.02c0,.2-.02.41-.02.61,0,0,0,0,0,.02C.04,26.48,0,27.26,0,28.06v16.98h78.69c.81-1.2,1.58-2.2,2.23-2.98.12-.14.82-.92,1.64-1.82l.46-.51c.6-.65,1.21-1.3,1.67-1.77,1.5-1.46,3.15-2.77,4.88-3.95,4.18-2.88,8.67-5.3,13.43-7.08,4.75-1.78,9.88-3.2,15.21-4.4l18.53-3.52c10.98-1.85,22.05-3.59,31.99-6.39H4.64Z"/>
</svg>