<svg width="201" height="47" viewBox="0 0 201 47" fill="none" xmlns="http://www.w3.org/2000/svg">
<g clip-path="url(#clip0_198_2)">
<path d="M34.1338 0.0518799H5.2371C2.53072 0.0518799 0.339844 2.24276 0.339844 4.94914V16.752C1.76463 10.5731 19.6461 3.20932 34.1338 0.0518799Z" fill="#EAEAEA"/>
<path d="M19.6711 23.679C2.87081 23.8329 1.08804 21.2733 0.339844 18.2805V39.5664C21.0422 33.3267 32.6839 23.5608 19.6711 23.6825V23.679Z" fill="#EAEAEA"/>
<path d="M24.8331 17.6756C44.6835 15.0694 46.1369 20.8044 47.2359 25.0179V4.94913C47.2359 4.83099 47.2324 4.71286 47.2216 4.59472C47.0211 1.77737 44.2396 -0.102062 41.4831 0.513675C23.0181 4.6341 -0.956233 21.0621 24.8331 17.6756Z" fill="#EAEAEA"/>
<path d="M26.1934 46.9481H42.3421C45.0449 46.9481 47.2394 44.7573 47.2394 42.0509V27.9319C45.8218 34.2325 36.0559 42.0115 26.1969 46.9481H26.1934Z" fill="#EAEAEA"/>
<path d="M60.013 28.0392H65.3613C65.458 30.5452 67.5307 31.9413 70.7097 31.9413C73.8886 31.9413 75.9148 30.8315 75.9148 29.0488C75.9148 27.6526 75.1451 26.6395 72.4924 26.3496L68.2503 25.7696C63.9616 25.2398 60.8758 23.0239 60.8758 18.6385C60.8758 14.5431 64.4413 11.0707 70.5629 11.0707C76.6845 11.0707 80.7798 14.1064 80.7297 19.3115H75.6212C75.5246 17.1421 73.5986 15.6493 70.5128 15.6493C67.4269 15.6493 66.0308 16.9488 66.0308 18.4452C66.0308 19.9416 67.2837 20.6611 69.0665 20.9046L73.7418 21.531C78.8002 22.1575 81.213 24.9534 81.213 28.9056C81.213 33.3876 77.3575 36.7598 70.7061 36.7598C64.0547 36.7598 60.1526 33.4341 60.0059 28.0357L60.013 28.0392Z" fill="#EAEAEA"/>
<path d="M142.461 36.7634C134.847 36.7634 129.545 31.3184 129.545 23.8974C129.545 16.4763 134.847 11.0779 142.461 11.0779C149.062 11.0779 153.931 15.1267 154.797 21.3915H149.256C148.629 17.8725 145.787 16.0432 142.461 16.0432C138.172 16.0432 134.893 19.2221 134.893 23.8974C134.893 28.5727 138.219 31.7516 142.461 31.7516C145.64 31.7516 148.243 30.0154 149.112 26.7863H154.704C153.645 32.8578 148.919 36.7634 142.465 36.7634H142.461Z" fill="#EAEAEA"/>
<path d="M93.3698 11.0742C87.9248 11.0742 83.876 14.2531 83.1528 19.4117H88.068C88.4045 17.5323 90.0441 15.6529 93.3196 15.6529C97.1286 15.6529 98.8147 18.1122 98.8147 20.5215C98.8147 20.8401 98.557 21.1014 98.2348 21.1014H91.3436C85.3688 21.1014 82.4297 24.667 82.4297 28.7158C82.4297 33.631 86.4785 36.7633 91.3436 36.7633C95.779 36.7633 98.1883 34.9305 99.1978 32.9078V36.3302H103.873V20.5215C103.873 15.8462 100.451 11.0742 93.3662 11.0742H93.3698ZM98.8147 26.5929C98.8147 29.4354 96.5988 32.1847 92.1633 32.1847C89.5142 32.1847 87.7279 30.8351 87.7279 28.6657C87.7279 26.6431 89.414 25.4868 91.3436 25.4868H98.8147V26.5965V26.5929Z" fill="#EAEAEA"/>
<path d="M166.553 11.0742C161.108 11.0742 157.06 14.2531 156.336 19.4117H161.252C161.588 17.5323 163.228 15.6529 166.503 15.6529C170.312 15.6529 171.998 18.1122 171.998 20.5215C171.998 20.8401 171.741 21.1014 171.418 21.1014H164.527C158.552 21.1014 155.613 24.667 155.613 28.7158C155.613 33.631 159.662 36.7633 164.527 36.7633C168.963 36.7633 171.372 34.9305 172.381 32.9078V36.3302H177.057V20.5215C177.057 15.8462 173.634 11.0742 166.55 11.0742H166.553ZM171.998 26.5929C171.998 29.4354 169.782 32.1847 165.347 32.1847C162.698 32.1847 160.911 30.8351 160.911 28.6657C160.911 26.6431 162.598 25.4868 164.527 25.4868H171.998V26.5965V26.5929Z" fill="#EAEAEA"/>
<path d="M127.157 36.2372H122.252V21.3808C122.252 18.3379 119.775 15.8606 116.732 15.8606C113.689 15.8606 111.212 18.3379 111.212 21.3808V36.2372H106.308V21.3808C106.308 15.6315 110.983 10.9562 116.732 10.9562C122.481 10.9562 127.157 15.6315 127.157 21.3808V36.2372Z" fill="#EAEAEA"/>
<path d="M200.339 36.2372H195.435V21.3808C195.435 18.3379 192.958 15.8606 189.915 15.8606C186.872 15.8606 184.395 18.3379 184.395 21.3808V36.2372H179.49V21.3808C179.49 15.6315 184.166 10.9562 189.915 10.9562C195.664 10.9562 200.339 15.6315 200.339 21.3808V36.2372Z" fill="#EAEAEA"/>
<path d="M115.254 30.6597C116.143 30.6597 116.864 29.9385 116.864 29.0488C116.864 28.1591 116.143 27.4379 115.254 27.4379C114.364 27.4379 113.643 28.1591 113.643 29.0488C113.643 29.9385 114.364 30.6597 115.254 30.6597Z" fill="#EAEAEA"/>
</g>
<defs>
<clipPath id="clip0_198_2">
<rect width="200" height="46.8963" fill="white" transform="translate(0.339844 0.0518799)"/>
</clipPath>
</defs>
</svg>
