<svg width="446" height="62" viewBox="0 0 446 62" fill="none" xmlns="http://www.w3.org/2000/svg">
<g clip-path="url(#clip0_187_2)">
<mask id="mask0_187_2" style="mask-type:luminance" maskUnits="userSpaceOnUse" x="0" y="0" width="446" height="62">
<path d="M446 0H0V62H446V0Z" fill="white"/>
</mask>
<g mask="url(#mask0_187_2)">
<path d="M107.732 41.0428H120.627C120.858 47.063 125.856 50.4204 133.522 50.4204C141.188 50.4204 146.071 47.7575 146.071 43.4754C146.071 40.118 144.211 37.6854 137.823 36.9909L127.6 35.6019C117.262 34.328 109.827 29.0023 109.827 18.4659C109.827 8.62405 118.425 0.290039 133.176 0.290039C147.927 0.290039 157.806 7.58416 157.687 20.0852H145.374C145.143 14.8746 140.495 11.2869 133.06 11.2869C125.625 11.2869 122.256 14.414 122.256 18.0017C122.256 21.5893 125.275 23.3274 129.576 23.9068L140.846 25.4109C153.044 26.9151 158.85 33.6298 158.85 43.1226C158.85 53.8892 149.555 61.9929 133.526 61.9929C117.497 61.9929 108.083 54.0043 107.736 41.0391L107.732 41.0428Z" fill="white"/>
<path d="M306.474 62.0001C288.119 62.0001 275.34 48.916 275.34 31.0892C275.34 13.2624 288.119 0.293457 306.474 0.293457C322.388 0.293457 334.124 10.0202 336.214 25.0689H322.853C321.344 16.6161 314.487 12.2188 306.474 12.2188C296.132 12.2188 288.235 19.8583 288.235 31.0892C288.235 42.3201 296.251 49.9596 306.474 49.9596C314.14 49.9596 320.416 45.7926 322.507 38.0342H335.983C333.427 52.6224 322.041 62.0001 306.474 62.0001Z" fill="white"/>
<path d="M188.137 0.293753C175.011 0.293753 165.25 7.93327 163.506 20.3229H175.357C176.17 15.8068 180.12 11.2944 188.021 11.2944C197.201 11.2944 201.267 17.1995 201.267 22.9857C201.267 23.7545 200.64 24.3747 199.873 24.3747H183.258C168.854 24.3747 161.766 32.9427 161.766 42.6657C161.766 54.476 171.526 62.0004 183.258 62.0004C193.947 62.0004 199.757 57.5994 202.195 52.7379V60.9568H213.465V22.982C213.465 11.7512 205.217 0.290039 188.137 0.290039V0.293753ZM201.267 37.5703C201.267 44.4001 195.922 50.9998 185.234 50.9998C178.842 50.9998 174.545 47.7575 174.545 42.5469C174.545 37.6854 178.611 34.9074 183.258 34.9074H201.267V37.5703Z" fill="white"/>
<path d="M364.551 0.293753C351.425 0.293753 341.664 7.93327 339.92 20.3229H351.772C352.584 15.8068 356.534 11.2944 364.435 11.2944C373.615 11.2944 377.681 17.1995 377.681 22.9857C377.681 23.7545 377.055 24.3747 376.287 24.3747H359.672C345.268 24.3747 338.18 32.9427 338.18 42.6657C338.18 54.476 347.94 62.0004 359.672 62.0004C370.361 62.0004 376.171 57.5994 378.609 52.7379V60.9568H389.879V22.982C389.879 11.7512 381.631 0.290039 364.551 0.290039V0.293753ZM377.681 37.5703C377.681 44.4001 372.336 50.9998 361.648 50.9998C355.256 50.9998 350.959 47.7575 350.959 42.5469C350.959 37.6854 355.025 34.9074 359.672 34.9074H377.681V37.5703Z" fill="white"/>
<path d="M269.585 60.7374H257.759V25.0468C257.759 17.7341 251.793 11.7881 244.454 11.7881C237.116 11.7881 231.149 17.7341 231.149 25.0468V60.7374H219.324V25.0468C219.324 11.2384 230.598 0.00390625 244.454 0.00390625C258.311 0.00390625 269.585 11.2384 269.585 25.0468V60.7374Z" fill="white"/>
<path d="M446.001 60.7374H434.175V25.0468C434.175 17.7341 428.209 11.7881 420.87 11.7881C413.532 11.7881 407.566 17.7341 407.566 25.0468V60.7374H395.74V25.0468C395.74 11.2384 407.014 0.00390625 420.87 0.00390625C434.727 0.00390625 446.001 11.2384 446.001 25.0468V60.7374Z" fill="white"/>
<path d="M240.889 39.6016C238.746 39.6016 237.006 41.336 237.006 43.4715C237.006 45.607 238.746 47.3414 240.889 47.3414C243.032 47.3414 244.773 45.607 244.773 43.4715C244.773 41.336 243.032 39.6016 240.889 39.6016Z" fill="white"/>
<path d="M61.0156 20.089H81.353V0.104492H61.0156V20.089Z" fill="white"/>
<path d="M0 60.9011H20.3375V40.6343H0V60.9011Z" fill="white"/>
<path d="M20.1586 0.171342H0V0.312471C0 12.4384 5.35176 23.3202 13.8304 30.7331C20.8555 36.8796 30.0273 40.6455 40.0786 40.7755C40.2537 40.7755 40.4289 40.7755 40.6041 40.7755C40.7792 40.7755 40.9544 40.7755 41.1296 40.7755C52.1722 41.0541 61.0384 49.7818 61.0384 60.8529V60.9049H81.3498H81.1932V60.8529C81.1932 48.7382 75.8489 38.1498 67.3815 30.7368C60.2334 24.4826 50.8641 20.6907 40.6078 20.6907C29.3192 20.6907 20.1623 11.5693 20.1623 0.316185C20.1623 0.24562 20.1623 0.175056 20.1623 0.104492" fill="white"/>
</g>
</g>
<defs>
<clipPath id="clip0_187_2">
<rect width="446" height="62" fill="white"/>
</clipPath>
</defs>
</svg>
