<svg width="446" height="62" viewBox="0 0 446 62" fill="none" xmlns="http://www.w3.org/2000/svg">
<g clip-path="url(#clip0_126_2)">
<path d="M107.732 41.0423H120.627C120.858 47.0625 125.856 50.4199 133.522 50.4199C141.188 50.4199 146.071 47.757 146.071 43.4749C146.071 40.1175 144.211 37.6849 137.823 36.9904L127.6 35.6014C117.262 34.3275 109.827 29.0018 109.827 18.4654C109.827 8.62356 118.425 0.289551 133.176 0.289551C147.927 0.289551 157.806 7.58367 157.687 20.0847H145.374C145.143 14.8741 140.495 11.2864 133.06 11.2864C125.625 11.2864 122.256 14.4135 122.256 18.0012C122.256 21.5888 125.275 23.3269 129.576 23.9063L140.846 25.4104C153.044 26.9146 158.85 33.6293 158.85 43.1221C158.85 53.8887 149.555 61.9924 133.526 61.9924C117.497 61.9924 108.083 54.0038 107.736 41.0386L107.732 41.0423Z" fill="#FF4919"/>
<path d="M306.474 62.0001C288.119 62.0001 275.34 48.916 275.34 31.0892C275.34 13.2624 288.119 0.293457 306.474 0.293457C322.388 0.293457 334.124 10.0202 336.214 25.0689H322.853C321.344 16.6161 314.487 12.2188 306.474 12.2188C296.132 12.2188 288.235 19.8583 288.235 31.0892C288.235 42.3201 296.251 49.9596 306.474 49.9596C314.14 49.9596 320.416 45.7926 322.507 38.0342H335.983C333.427 52.6224 322.041 62.0001 306.474 62.0001Z" fill="#FF4919"/>
<path d="M188.136 0.293265C175.01 0.293265 165.249 7.93278 163.505 20.3224H175.356C176.169 15.8063 180.119 11.2939 188.02 11.2939C197.2 11.2939 201.266 17.199 201.266 22.9852C201.266 23.754 200.639 24.3742 199.872 24.3742H183.257C168.853 24.3742 161.765 32.9422 161.765 42.6652C161.765 54.4755 171.525 61.9999 183.257 61.9999C193.946 61.9999 199.756 57.5989 202.194 52.7374V60.9563H213.464V22.9815C213.464 11.7507 205.216 0.289551 188.136 0.289551V0.293265ZM201.266 37.5698C201.266 44.3996 195.921 50.9993 185.233 50.9993C178.841 50.9993 174.544 47.757 174.544 42.5464C174.544 37.6849 178.61 34.9069 183.257 34.9069H201.266V37.5698Z" fill="#FF4919"/>
<path d="M364.55 0.293265C351.424 0.293265 341.663 7.93278 339.919 20.3224H351.771C352.583 15.8063 356.533 11.2939 364.434 11.2939C373.614 11.2939 377.68 17.199 377.68 22.9852C377.68 23.754 377.054 24.3742 376.286 24.3742H359.671C345.267 24.3742 338.179 32.9422 338.179 42.6652C338.179 54.4755 347.939 61.9999 359.671 61.9999C370.36 61.9999 376.17 57.5989 378.608 52.7374V60.9563H389.878V22.9815C389.878 11.7507 381.63 0.289551 364.55 0.289551V0.293265ZM377.68 37.5698C377.68 44.3996 372.335 50.9993 361.647 50.9993C355.255 50.9993 350.958 47.757 350.958 42.5464C350.958 37.6849 355.024 34.9069 359.671 34.9069H377.68V37.5698Z" fill="#FF4919"/>
<path d="M269.586 60.7372H257.76V25.0466C257.76 17.7339 251.794 11.7879 244.455 11.7879C237.117 11.7879 231.15 17.7339 231.15 25.0466V60.7372H219.325V25.0466C219.325 11.2382 230.599 0.00366211 244.455 0.00366211C258.312 0.00366211 269.586 11.2382 269.586 25.0466V60.7372Z" fill="#FF4919"/>
<path d="M446.001 60.7372H434.175V25.0466C434.175 17.7339 428.209 11.7879 420.87 11.7879C413.532 11.7879 407.566 17.7339 407.566 25.0466V60.7372H395.74V25.0466C395.74 11.2382 407.014 0.00366211 420.87 0.00366211C434.727 0.00366211 446.001 11.2382 446.001 25.0466V60.7372Z" fill="#FF4919"/>
<path d="M240.889 39.6013C238.746 39.6013 237.006 41.3357 237.006 43.4712C237.006 45.6067 238.746 47.3411 240.889 47.3411C243.032 47.3411 244.773 45.6067 244.773 43.4712C244.773 41.3357 243.032 39.6013 240.889 39.6013Z" fill="#FF4919"/>
<path d="M61.0161 20.0886L81.3535 20.0886V0.104078L61.0161 0.104078V20.0886Z" fill="#FF4919"/>
<path d="M0.000450134 60.9006H20.3379L20.3379 40.6338H0.000450134L0.000450134 60.9006Z" fill="#FF4919"/>
<path d="M20.1586 0.170854H0V0.311983C0 12.4379 5.35176 23.3197 13.8304 30.7326C20.8555 36.8791 30.0273 40.645 40.0786 40.775C40.2537 40.775 40.4289 40.775 40.6041 40.775C40.7792 40.775 40.9544 40.775 41.1296 40.775C52.1722 41.0536 61.0384 49.7813 61.0384 60.8524V60.9044H81.3498H81.1932V60.8524C81.1932 48.7377 75.8489 38.1493 67.3815 30.7363C60.2334 24.4821 50.8641 20.6902 40.6078 20.6902C29.3192 20.6902 20.1623 11.5688 20.1623 0.315697C20.1623 0.245132 20.1623 0.174568 20.1623 0.104004" fill="#FF4919"/>
</g>
<defs>
<clipPath id="clip0_126_2">
<rect width="446" height="62" fill="white"/>
</clipPath>
</defs>
</svg>
